#!OML:ASF E:\Steps\Project 1\Capture day 1\Session 2\Subject.ASF
:FULLY-SPECIFIED
:DEGREES
883
root 8.9948 22.6024 -20.1602 -158.124 1.53568 178.354
lowerback -24.9886 -1.52904 -4.8315
upperback 0.911965 -0.397678 0.112367
thorax 15.2237 -0.490636 2.7855
lowerneck 2.97038 -2.98665 -2.66294
upperneck 10.8474 -3.87272 6.87558
head 3.21462 -1.52265 2.68399
rclavicle -3.59055e-015 1.2921e-015
rhumerus -43.0429 -19.8714 -73.8152
rradius 34.6141
rwrist -1.25683
rhand -5.96575 -53.2191
rfingers 7.12502
rthumb 19.8653 -82.2239
lclavicle -3.59055e-015 1.2921e-015
lhumerus -33.1952 6.38366 78.708
lradius 25.2278
lwrist -1.8676
lhand -21.1561 -13.3264
lfingers 7.12502
lthumb 5.22367 16.5892
rfemur -29.7693 10.3849 16.6716
rtibia 19.5843
rfoot -19.8946 -8.53298
rtoes -37.069
lfemur -27.8361 -11.0857 -21.2477
ltibia 20.5158
lfoot -12.2091 2.4482
ltoes -27.5061
884
root 9.01074 22.6032 -20.2017 -158.151 1.39846 178.23
lowerback -25.2919 -1.63432 -4.98592
upperback 0.906124 -0.463995 0.105235
thorax 15.3991 -0.533203 2.84197
lowerneck 2.9749 -3.08002 -2.60195
upperneck 11.0126 -3.99016 6.89633
head 3.27686 -1.56738 2.67984
rclavicle -1.2424e-015 -1.70955e-014
rhumerus -42.9273 -19.8841 -73.8494
rradius 34.499
rwrist -1.16695
rhand -6.0104 -53.7097
rfingers 7.12502
rthumb 19.8224 -82.7188
lclavicle -1.2424e-015 -1.70955e-014
lhumerus -33.1989 6.26184 78.8099
lradius 24.8998
lwrist -1.81001
lhand -20.9435 -13.3177
lfingers 7.12502
lthumb 5.42889 16.5927
rfemur -29.3447 10.4406 16.6218
rtibia 19.177
rfoot -19.9689 -8.76662
rtoes -36.6477
lfemur -27.4807 -11.0341 -21.3571
ltibia 20.1739
lfoot -12.1568 2.22352
ltoes -27.2773
885
root 9.02059 22.6059 -20.2383 -158.232 1.25677 178.101
lowerback -25.4641 -1.74254 -5.0912
upperback 0.921657 -0.557411 0.0832858
thorax 15.527 -0.583898 2.84146
lowerneck 2.81023 -3.08556 -2.5733
upperneck 10.9368 -4.00517 6.79497
head 3.27736 -1.58344 2.63667
rclavicle -1.6027e-015 3.8763e-015
rhumerus -42.7615 -19.8596 -73.9179
rradius 34.3713
rwrist -1.24499
rhand -6.18826 -53.4421
rfingers 7.12502
rthumb 19.6514 -82.4688
lclavicle -1.6027e-015 3.8763e-015
lhumerus -33.2872 6.10927 78.9325
lradius 24.7298
lwrist -1.80951
lhand -20.6666 -13.1504
lfingers 7.12502
lthumb 5.69622 16.7531
rfemur -28.8342 10.4459 16.5551
rtibia 18.6966
rfoot -19.7719 -8.98207
rtoes -37.0491
lfemur -27.0566 -11.0567 -21.4966
ltibia 19.7935
lfoot -12.0867 2.02389
ltoes -26.7288
886
root 9.02877 22.6084 -20.2687 -158.353 1.09516 178.091
lowerback -25.2906 -1.73843 -5.03748
upperback 0.810598 -0.571345 0.0658131
thorax 15.2933 -0.573605 2.78636
lowerneck 2.83807 -3.26764 -2.48148
upperneck 10.864 -4.24276 6.62896
head 3.25157 -1.70823 2.55644
rclavicle -1.20513e-015 -2.38542e-015
rhumerus -42.8238 -20.1575 -73.7168
rradius 34.2286
rwrist -1.11803
rhand -6.09233 -52.8415
rfingers 7.12502
rthumb 19.7436 -81.8588
lclavicle -1.20513e-015 -2.38542e-015
lhumerus -33.5115 5.76426 79.0911
lradius 24.4401
lwrist -2.01477
lhand -20.4268 -12.713
lfingers 7.12502
lthumb 5.92777 17.1841
rfemur -28.293 10.3826 16.6469
rtibia 18.2132
rfoot -19.8621 -8.8827
rtoes -36.0201
lfemur -26.6607 -11.0834 -21.4998
ltibia 19.4781
lfoot -12.078 1.88843
ltoes -26.3179
887
root 9.03764 22.6113 -20.2967 -158.554 0.91878 177.977
lowerback -25.0431 -1.78193 -5.10893
upperback 0.722443 -0.614436 0.0324063
thorax 15.0502 -0.586741 2.77381
lowerneck 2.84025 -3.12279 -2.45277
upperneck 10.394 -4.06625 6.64056
head 3.07826 -1.64364 2.55322
rclavicle 5.72748e-015 -6.65929e-015
rhumerus -42.7573 -20.2299 -73.6479
rradius 34.0339
rwrist -1.15081
rhand -6.13911 -52.7937
rfingers 7.12502
rthumb 19.6986 -81.8156
lclavicle 5.72748e-015 -6.65929e-015
lhumerus -33.5173 5.3922 79.2563
lradius 23.8229
lwrist -2.16406
lhand -20.188 -12.5301
lfingers 7.12502
lthumb 6.15831 17.3604
rfemur -27.7352 10.1231 16.6711
rtibia 17.86
rfoot -19.7293 -8.78701
rtoes -36.18
lfemur -26.1928 -11.1106 -21.6474
ltibia 19.1663
lfoot -12.0495 1.7831
ltoes -26.8147
888
root 9.04732 22.6147 -20.3471 -158.423 0.688595 178.106
lowerback -25.4971 -1.86446 -4.90798
upperback 0.600121 -0.74352 0.0613533
thorax 15.1701 -0.621777 2.64423
lowerneck 2.93011 -3.11254 -2.38023
upperneck 10.2576 -4.04803 6.55716
head 3.00882 -1.64149 2.5109
rclavicle 2.03754e-015 -4.57205e-015
rhumerus -42.8115 -20.028 -73.7491
rradius 34.0763
rwrist -1.42814
rhand -6.46428 -53.2521
rfingers 7.12502
rthumb 19.386 -82.3058
lclavicle 2.03754e-015 -4.57205e-015
lhumerus -33.5902 5.08442 79.3606
lradius 23.2475
lwrist -2.31716
lhand -19.9947 -12.9371
lfingers 7.12502
lthumb 6.34492 16.9479
rfemur -27.3651 9.79957 16.9734
rtibia 17.3741
rfoot -19.8083 -8.63321
rtoes -36.4574
lfemur -25.9122 -11.1507 -21.4674
ltibia 18.7209
lfoot -11.9543 1.66996
ltoes -26.7189
